<svg width="24" height="24" viewBox="0 0 24 24" fill="none" xmlns="http://www.w3.org/2000/svg">
<path d="M20.0862 5.04153C20.2233 5.03912 20.5302 5.0728 20.7288 5.23391C20.8964 5.36997 20.9421 5.55415 20.9641 5.68313C20.9862 5.8121 21.0143 6.10588 20.9925 6.33547C20.743 8.95618 19.6636 15.3159 19.1145 18.2515C18.8822 19.4933 18.4245 19.9098 17.9817 19.9507C17.0192 20.0393 16.288 19.3147 15.3557 18.7036C13.8971 17.7475 13.0725 17.1523 11.6565 16.2193C10.0205 15.141 11.0814 14.5482 12.0139 13.5796C12.258 13.3261 16.4992 9.4686 16.5813 9.11868C16.5916 9.07467 16.6008 8.91177 16.5042 8.82571C16.4073 8.73957 16.2636 8.76908 16.1604 8.79251C16.012 8.82723 13.6814 10.3677 9.16922 13.4136C8.50797 13.8676 7.909 14.0891 7.37234 14.0777C6.78054 14.0649 5.64146 13.7424 4.79519 13.4673C3.75739 13.13 2.93235 12.9514 3.00418 12.3784C3.0419 12.0801 3.4533 11.7753 4.23757 11.4634C9.06939 9.35826 12.2915 7.96988 13.9036 7.29934C18.5063 5.38493 19.4628 5.05251 20.0862 5.04153Z" fill="white"/>
</svg>
