<svg width="24" height="24" viewBox="0 0 24 24" fill="none" xmlns="http://www.w3.org/2000/svg">
<path d="M7.28436 4C7.97879 4 8.54915 4.34851 8.86053 4.53906L8.86932 4.54395L9.03241 4.64746C10.16 5.36469 10.6037 8.9873 10.6037 9.02051C10.5715 9.78417 10.0771 10.3522 9.3703 11.0693C9.77195 11.8629 10.5167 12.8795 11.0539 13.4473C11.577 14.0018 12.4517 14.7619 13.2609 15.25C13.8875 14.6489 14.3408 14.2574 14.884 14.1279L15.2306 14.0781L15.3068 14.0811C15.3389 14.0811 18.8222 14.6919 19.4592 15.8838L19.548 16.0537C19.7699 16.492 20.4321 17.7839 19.5685 18.9395C19.199 19.4542 18.4043 20.4006 17.3703 20.8389L17.1545 20.9219L17.0656 20.9248C16.8308 20.968 16.5517 20.9775 16.3459 20.9775C15.5456 20.9775 11.3817 20.7817 7.79608 16.9033C4.01066 12.8157 3.71778 7.59894 4.15155 6.57617C4.61748 5.53696 5.57178 4.74979 6.09588 4.37793C6.31065 4.23523 6.51666 4.14255 6.73846 4.07617C6.93715 4.02303 7.11075 4.00002 7.28436 4ZM7.98456 6.24121C7.74858 6.08719 7.40096 5.81363 7.1242 5.98535C6.5621 6.387 6.09303 6.88504 5.88006 7.30664C5.78769 7.93755 5.92767 12.099 9.14471 15.5723C12.2062 18.8829 15.6802 19.0518 16.3459 19.0518C16.5444 19.0517 16.6698 19.0388 16.718 19.0322C17.2098 18.8098 17.7487 18.2353 18.0861 17.7705C18.1855 17.6343 18.1343 17.4119 17.9094 16.9736L17.8742 16.9072C17.4533 16.625 15.8451 16.1336 15.2785 16.0205C15.1068 16.1125 14.6623 16.5404 14.34 16.8506L14.2951 16.8936C13.8846 17.3018 13.362 17.2424 12.8381 16.9736C11.7517 16.4025 10.6427 15.3693 9.9328 14.6123C9.2099 13.8486 8.33204 12.5173 7.87616 11.4248C7.66433 10.8903 7.42939 10.3889 7.8117 9.96387L7.84393 9.92676L7.89666 9.87305C8.17681 9.58775 8.61911 9.1368 8.73358 8.9375C8.64723 8.35307 8.24562 6.68965 7.98456 6.24121Z" fill="white"/>
</svg>
