<svg width="24" height="24" viewBox="0 0 24 24" fill="none" xmlns="http://www.w3.org/2000/svg">
<path d="M12.5068 2.01172C13.6744 2.06525 14.8077 2.30546 15.8848 2.7334C17.075 3.20625 18.1432 3.88327 19.0645 4.73926C19.9858 5.60349 20.7113 6.60666 21.2168 7.72363C21.7386 8.88946 22.0081 10.1204 22 11.4004L21.9873 11.876C21.9287 12.981 21.6655 14.0564 21.209 15.0693L21.0088 15.4834C20.5187 16.4353 19.8627 17.2976 19.0566 18.0537L18.7041 18.3682C17.8662 19.0816 16.9186 19.6458 15.877 20.0596L15.4121 20.2314C14.3192 20.606 13.1732 20.7929 11.9961 20.793L11.458 20.7803C10.2099 20.7197 9.01314 20.4469 7.87891 19.9619L3.54102 21.8936L4.35645 17.4502C2.92707 15.8603 2.10669 13.8835 2.00977 11.8086L2 11.3926C2 10.1207 2.26922 8.88138 2.79102 7.72363C3.23333 6.74625 3.8444 5.85652 4.60742 5.07031L4.94336 4.73926C5.74955 3.98304 6.66808 3.37649 7.68262 2.91992L8.12305 2.7334C9.35412 2.24425 10.6587 2.00001 12.0039 2L12.5068 2.01172ZM12.0039 4C11.0417 4.00001 10.115 4.15251 9.23535 4.4541L8.86133 4.59277C7.89426 4.97698 7.04208 5.51294 6.31152 6.19824C5.57356 6.89052 5.00602 7.68016 4.61328 8.54785C4.20754 9.44898 4 10.4076 4 11.3926C4.00002 13.1108 4.63981 14.7741 5.84375 16.1133L6.50098 16.8447L6.19238 18.5225L7.8623 17.7793L8.66504 18.123C9.7054 18.5679 10.8153 18.793 11.9961 18.793C13.0955 18.7929 14.1492 18.5943 15.1387 18.2012L15.4961 18.0498C16.317 17.6804 17.0493 17.1943 17.6885 16.5947C18.4264 15.9024 18.994 15.1128 19.3867 14.2451C19.7924 13.344 20 12.3853 20 11.4004V11.3877L19.9922 11.0205C19.9516 10.17 19.7507 9.34594 19.3945 8.54785L19.2393 8.22656C18.8588 7.48723 18.3457 6.80926 17.7031 6.20508L17.4209 5.9541C16.8444 5.4658 16.2029 5.05956 15.502 4.74316L15.1465 4.59277C14.157 4.19958 13.1035 4 12.0039 4ZM7.2832 8.47363C7.5441 7.87847 8.18029 6.73698 9.28906 7.30762C9.54983 7.43811 9.58278 7.78899 9.72949 8.02539C9.90056 8.38384 10.0958 8.82374 10.21 9.06836C10.2752 9.30475 10.6584 9.66384 10.1533 10.2344C10.0555 10.4219 9.61519 10.7486 9.63965 10.9932C9.77037 11.2299 10.3732 12.1102 10.6992 12.4199C11.433 13.1292 12.3709 13.8219 13.3818 14.0176C13.7384 13.882 14.0764 13.229 14.3955 12.8711L14.5312 12.7373C14.6455 12.6479 14.9718 12.7949 15.1104 12.8438C15.3305 12.9253 15.6406 13.0557 16.0645 13.2676C16.366 13.4224 16.7085 13.5121 17.002 13.7158C17.1486 13.9114 17.1895 14.075 17.0918 14.5068L16.9961 14.7314C14.8747 19.2557 5.73429 12.2055 7.2832 8.47363Z" fill="white"/>
</svg>
