<svg width="24" height="24" viewBox="0 0 24 24" fill="none" xmlns="http://www.w3.org/2000/svg">
<path d="M20.0862 5.04154C20.2233 5.03914 20.5302 5.07281 20.7288 5.23393C20.8964 5.36998 20.9421 5.55416 20.9641 5.68315C20.9862 5.81212 21.0143 6.1059 20.9925 6.33549C20.743 8.95619 19.6636 15.3159 19.1145 18.2515C18.8822 19.4933 18.4245 19.9098 17.9817 19.9507C17.0192 20.0393 16.288 19.3148 15.3557 18.7037C13.8971 17.7475 13.0725 17.1524 11.6565 16.2193C10.0205 15.141 11.0814 14.5482 12.0139 13.5796C12.258 13.3261 16.4992 9.46862 16.5813 9.11869C16.5916 9.07468 16.6008 8.91178 16.5042 8.82572C16.4073 8.73958 16.2636 8.76909 16.1604 8.79252C16.012 8.82724 13.6814 10.3677 9.16922 13.4136C8.50797 13.8676 7.909 14.0892 7.37234 14.0777C6.78054 14.0649 5.64146 13.7424 4.79519 13.4673C3.75739 13.13 2.93235 12.9514 3.00418 12.3785C3.04191 12.0801 3.45331 11.7753 4.23757 11.4634C9.06939 9.35828 12.2915 7.96989 13.9036 7.29936C18.5063 5.38495 19.4628 5.05253 20.0862 5.04154Z" fill="#1D2025"/>
</svg>
