<svg width="493" height="203" viewBox="0 0 493 203" fill="none" xmlns="http://www.w3.org/2000/svg">
<path d="M457.058 195.145V199.063C457.058 199.91 457.204 200.636 457.496 201.241H454.293C454.607 200.757 454.763 200.031 454.763 199.063V184.853C454.763 184.362 454.724 183.96 454.646 183.647C454.567 183.334 454.45 183.056 454.293 182.814H462.418C462.767 182.814 463.073 182.836 463.336 182.878C463.599 182.921 463.816 182.999 463.987 183.113C464.165 183.227 464.297 183.38 464.382 183.572C464.475 183.757 464.521 183.992 464.521 184.277C464.521 184.683 464.432 185.063 464.254 185.419C463.891 186.024 463.571 186.547 463.293 186.989C463.016 187.423 462.774 187.782 462.567 188.067C462.475 188.202 462.347 188.387 462.183 188.622C462.019 188.85 461.838 189.106 461.639 189.391C461.439 189.668 461.233 189.957 461.019 190.255C460.806 190.547 460.607 190.821 460.421 191.078C460.236 191.334 460.073 191.558 459.93 191.75C459.795 191.935 459.703 192.06 459.653 192.124L457.058 195.145ZM457.058 191.686C457.13 191.586 457.272 191.401 457.486 191.131C457.706 190.86 457.959 190.54 458.243 190.17C458.535 189.8 458.841 189.398 459.162 188.964C459.489 188.522 459.795 188.088 460.08 187.661C460.372 187.234 460.624 186.828 460.838 186.444C461.058 186.06 461.204 185.732 461.276 185.462C461.325 185.277 461.261 185.145 461.083 185.067C460.913 184.989 460.678 184.949 460.379 184.949H457.058V191.686Z" fill="white" fill-opacity="0.87"/>
<path d="M427.308 182.355C427.308 183.131 427.012 183.782 426.421 184.309C425.838 184.829 425.151 185.088 424.361 185.088H422.386V199.074C422.386 199.544 422.404 199.882 422.439 200.088C422.51 200.494 422.649 200.882 422.856 201.252H419.493C419.713 200.932 419.859 200.558 419.93 200.131C419.966 199.903 419.984 199.551 419.984 199.074V185.024H417.742C417.115 185.024 416.397 185.241 415.585 185.676V182.782H425.012C425.468 182.782 425.92 182.725 426.368 182.611C426.432 182.611 426.745 182.526 427.308 182.355Z" fill="white" fill-opacity="0.87"/>
<path d="M380.662 192.135V199.074C380.662 199.544 380.679 199.882 380.715 200.088C380.786 200.494 380.925 200.882 381.131 201.252H377.768C377.989 200.932 378.135 200.558 378.206 200.131C378.249 199.861 378.27 199.508 378.27 199.074V184.939C378.27 184.49 378.249 184.145 378.206 183.903C378.128 183.462 377.982 183.088 377.768 182.782H381.153C380.939 183.11 380.804 183.448 380.747 183.796C380.69 184.145 380.662 184.526 380.662 184.939V186.145H386.181V184.939C386.181 184.441 386.156 184.095 386.106 183.903C386.035 183.455 385.896 183.081 385.69 182.782H389.053C388.875 183.081 388.74 183.423 388.647 183.807C388.59 184.263 388.562 184.64 388.562 184.939V199.074C388.562 199.501 388.583 199.839 388.626 200.088C388.704 200.501 388.839 200.889 389.032 201.252H385.69C385.896 200.96 386.035 200.586 386.106 200.131C386.156 199.818 386.181 199.465 386.181 199.074V192.135V188.547H380.662V192.135Z" fill="white" fill-opacity="0.87"/>
<path d="M343.128 188.547V198.871H347.804C348.324 198.871 348.79 198.789 349.203 198.626C349.316 198.562 349.573 198.419 349.971 198.199V201.252H340.235C340.455 200.932 340.601 200.558 340.672 200.131C340.715 199.861 340.736 199.508 340.736 199.074V184.939C340.736 184.49 340.715 184.145 340.672 183.903C340.594 183.462 340.448 183.088 340.235 182.782H349.971V185.836C349.551 185.572 349.231 185.401 349.01 185.323C348.719 185.216 348.316 185.163 347.804 185.163H343.128V186.145H349.085V189.209C348.694 188.967 348.373 188.8 348.124 188.707C347.832 188.601 347.43 188.547 346.918 188.547H343.128Z" fill="white" fill-opacity="0.87"/>
<path d="M308.88 198.903V184.939C308.88 184.498 308.858 184.152 308.816 183.903C308.745 183.469 308.599 183.095 308.378 182.782H311.741C311.542 183.145 311.414 183.501 311.357 183.85C311.3 184.191 311.271 184.554 311.271 184.939V198.914H313.001V202.853C312.31 201.7 311.584 201.181 310.823 201.295L300.873 201.252C301.093 200.932 301.239 200.558 301.31 200.131C301.353 199.861 301.374 199.508 301.374 199.074V184.939C301.374 184.49 301.353 184.145 301.31 183.903C301.232 183.462 301.086 183.088 300.873 182.782H304.428C303.987 183.565 303.766 184.284 303.766 184.939V198.871L307.257 198.882L308.88 198.903Z" fill="white" fill-opacity="0.87"/>
<path d="M267.32 193.629C266.879 194.085 266.463 194.565 266.071 195.071C265.68 195.576 265.356 196.106 265.1 196.661C264.85 197.209 264.687 197.779 264.608 198.369C264.53 198.96 264.587 199.565 264.779 200.184C264.829 200.341 264.875 200.455 264.918 200.526C264.961 200.597 265.007 200.665 265.057 200.729C265.114 200.793 265.178 200.875 265.249 200.974C265.327 201.074 265.423 201.227 265.537 201.434L261.897 201.444C261.954 201.359 262.018 201.263 262.089 201.156C262.167 201.042 262.199 200.914 262.185 200.772C262.1 199.96 262.121 199.163 262.249 198.38C262.384 197.597 262.63 196.811 262.986 196.021C263.342 195.231 263.811 194.434 264.395 193.629C264.986 192.818 265.697 191.989 266.53 191.142L264.053 185.003C263.947 184.747 263.84 184.519 263.733 184.32C263.626 184.12 263.512 183.935 263.391 183.764C263.278 183.587 263.153 183.419 263.018 183.263C262.89 183.106 262.751 182.946 262.601 182.782H266.413C266.377 182.918 266.349 183.031 266.327 183.124C266.306 183.209 266.288 183.284 266.274 183.348C266.267 183.412 266.26 183.469 266.253 183.519C266.253 183.562 266.253 183.611 266.253 183.668C266.253 183.875 266.267 184.085 266.295 184.298C266.324 184.505 266.363 184.704 266.413 184.896L268.26 189.434C268.48 189.177 268.69 188.907 268.89 188.622C269.096 188.337 269.281 188.056 269.445 187.779C269.616 187.501 269.758 187.234 269.872 186.978C269.993 186.715 270.082 186.476 270.139 186.263C270.238 185.864 270.285 185.49 270.278 185.142C270.278 184.793 270.228 184.416 270.128 184.01C270.085 183.853 270.043 183.74 270 183.668C269.964 183.597 269.918 183.53 269.861 183.466C269.804 183.401 269.737 183.32 269.658 183.22C269.58 183.12 269.484 182.967 269.37 182.761L273.011 182.75C272.954 182.836 272.886 182.935 272.808 183.049C272.737 183.156 272.708 183.28 272.722 183.423C272.794 184.099 272.783 184.786 272.69 185.483C272.598 186.174 272.413 186.875 272.135 187.587C271.858 188.298 271.48 189.014 271.003 189.732C270.527 190.444 269.943 191.159 269.253 191.878L272.05 198.893C272.235 199.355 272.448 199.782 272.69 200.174C272.932 200.565 273.199 200.925 273.491 201.252H269.626C269.733 201.01 269.786 200.7 269.786 200.323C269.786 200.031 269.769 199.775 269.733 199.555C269.697 199.334 269.644 199.142 269.573 198.978C269.537 198.893 269.47 198.725 269.37 198.476C269.27 198.22 269.157 197.928 269.028 197.601C268.9 197.266 268.765 196.914 268.623 196.544C268.487 196.174 268.359 195.825 268.238 195.498C268.117 195.17 268.014 194.889 267.929 194.654C267.843 194.419 267.79 194.27 267.769 194.206L267.48 193.501L267.32 193.629Z" fill="white" fill-opacity="0.87"/>
<path d="M228.089 188.547V198.871H232.765C233.285 198.871 233.751 198.789 234.164 198.626C234.278 198.562 234.534 198.419 234.932 198.199V201.252H225.196C225.416 200.932 225.562 200.558 225.634 200.131C225.676 199.861 225.698 199.508 225.698 199.074V184.939C225.698 184.49 225.676 184.145 225.634 183.903C225.555 183.462 225.409 183.088 225.196 182.782H234.932V185.836C234.513 185.572 234.192 185.401 233.972 185.323C233.68 185.216 233.278 185.163 232.765 185.163H228.089V186.145H234.046V189.209C233.655 188.967 233.335 188.8 233.085 188.707C232.794 188.601 232.392 188.547 231.879 188.547H228.089Z" fill="white" fill-opacity="0.87"/>
<path d="M198.285 182.355C198.285 183.131 197.989 183.782 197.399 184.309C196.815 184.829 196.128 185.088 195.338 185.088H193.363V199.074C193.363 199.544 193.381 199.882 193.416 200.088C193.488 200.494 193.626 200.882 193.833 201.252H190.47C190.69 200.932 190.836 200.558 190.908 200.131C190.943 199.903 190.961 199.551 190.961 199.074V185.024H188.719C188.093 185.024 187.374 185.241 186.562 185.676V182.782H195.989C196.445 182.782 196.897 182.725 197.345 182.611C197.409 182.611 197.723 182.526 198.285 182.355Z" fill="white" fill-opacity="0.87"/>
<path d="M160.597 191.942C160.597 194.597 159.985 196.757 158.761 198.423C157.38 200.309 155.419 201.252 152.879 201.252C150.459 201.252 148.587 200.341 147.263 198.519C146.096 196.903 145.512 194.836 145.512 192.316C145.512 189.498 146.06 187.273 147.156 185.644C148.444 183.729 150.427 182.765 153.103 182.75C155.444 182.743 157.277 183.54 158.601 185.142C159.925 186.743 160.59 189.01 160.597 191.942ZM158.217 191.74C158.217 189.754 157.765 188.135 156.861 186.882C155.914 185.572 154.608 184.918 152.943 184.918C151.298 184.918 150.021 185.644 149.11 187.095C148.291 188.412 147.879 190.103 147.871 192.167C147.871 193.96 148.259 195.487 149.035 196.747C149.953 198.241 151.256 198.989 152.943 198.989C154.622 198.989 155.946 198.252 156.914 196.779C157.775 195.462 158.209 193.782 158.217 191.74Z" fill="white" fill-opacity="0.87"/>
<path d="M119.209 182.355C119.209 183.131 118.914 183.782 118.323 184.309C117.74 184.829 117.053 185.088 116.263 185.088H114.288V199.074C114.288 199.544 114.306 199.882 114.341 200.088C114.412 200.494 114.551 200.882 114.758 201.252H111.395C111.615 200.932 111.761 200.558 111.832 200.131C111.868 199.903 111.886 199.551 111.886 199.074V185.024H109.644C109.017 185.024 108.298 185.241 107.487 185.676V182.782H116.914C117.37 182.782 117.822 182.725 118.27 182.611C118.334 182.611 118.647 182.526 119.209 182.355Z" fill="white" fill-opacity="0.87"/>
<path d="M81.752 191.195C81.752 192.754 81.1363 194.341 79.905 195.957C78.7876 197.423 77.3783 198.651 75.6773 199.64C73.8481 200.7 72.0723 201.238 70.3499 201.252C70.5705 200.932 70.7164 200.558 70.7876 200.131C70.8303 199.861 70.8516 199.508 70.8516 199.074V184.939C70.8516 184.49 70.8303 184.145 70.7876 183.903C70.7093 183.462 70.5634 183.088 70.3499 182.782H77.5563C78.4673 182.782 79.1719 182.928 79.6701 183.22C80.3178 183.597 80.6452 184.213 80.6523 185.067C80.6595 186.12 80.1007 186.875 78.9762 187.33C79.8018 187.551 80.478 188.038 81.0047 188.793C81.5029 189.519 81.752 190.32 81.752 191.195ZM77.994 185.537C77.994 185.352 77.9228 185.213 77.7805 185.12C77.6168 185.014 77.4139 184.96 77.1719 184.96H73.2431V186.199H77.1719C77.4139 186.199 77.6168 186.138 77.7805 186.017C77.9228 185.889 77.994 185.729 77.994 185.537ZM79.1043 191.494C79.1043 190.633 78.8125 189.917 78.2289 189.348C77.6523 188.772 76.9335 188.483 76.0723 188.483H73.2431V197.9C74.0901 197.715 74.9869 197.263 75.9335 196.544C76.8018 195.882 77.5136 195.159 78.0687 194.377C78.7591 193.409 79.1043 192.448 79.1043 191.494Z" fill="white" fill-opacity="0.87"/>
<path d="M34.5339 199.149C34.5339 199.17 34.5339 199.195 34.5339 199.224C34.5339 199.337 34.541 199.473 34.5552 199.629C34.5766 199.786 34.6086 199.957 34.6513 200.142C34.694 200.32 34.7509 200.505 34.8221 200.697C34.8933 200.889 34.9823 201.074 35.089 201.252H31.2456C31.3808 201.046 31.5018 200.853 31.6086 200.675C31.7154 200.49 31.8043 200.312 31.8755 200.142C31.9538 199.971 32.0143 199.8 32.057 199.629C32.1068 199.451 32.1424 199.259 32.1638 199.053C32.1638 199.017 32.178 198.839 32.2065 198.519C32.2349 198.191 32.2705 197.775 32.3132 197.27C32.3559 196.764 32.4022 196.195 32.452 195.562C32.509 194.921 32.5623 194.27 32.6122 193.608C32.6691 192.939 32.726 192.284 32.783 191.643C32.8399 191.003 32.8897 190.426 32.9324 189.914C32.9751 189.401 33.0072 188.982 33.0285 188.654C33.057 188.32 33.0748 188.127 33.0819 188.078C33.1317 187.437 33.1709 186.903 33.1993 186.476C33.2278 186.049 33.2492 185.707 33.2634 185.451C33.2776 185.195 33.2848 185.014 33.2848 184.907L33.2954 184.747C33.2954 183.928 33.1282 183.273 32.7936 182.782H41.5588C41.4378 182.946 41.3452 183.11 41.2812 183.273C41.2171 183.437 41.1673 183.608 41.1317 183.786C41.0961 183.964 41.0748 184.149 41.0677 184.341C41.0606 184.526 41.057 184.725 41.057 184.939C41.057 185.152 41.0712 185.508 41.0997 186.006C41.1282 186.505 41.1638 187.088 41.2065 187.757C41.2492 188.426 41.299 189.159 41.3559 189.957C41.42 190.747 41.4805 191.544 41.5374 192.348C41.6015 193.152 41.662 193.935 41.7189 194.697C41.783 195.458 41.8399 196.145 41.8897 196.757C41.9467 197.369 41.9894 197.882 42.0178 198.295C42.0534 198.7 42.0783 198.953 42.0926 199.053C42.0926 199.224 42.1175 199.405 42.1673 199.597C42.2243 199.782 42.2954 199.971 42.3808 200.163C42.4662 200.355 42.5623 200.544 42.6691 200.729C42.783 200.914 42.8969 201.088 43.0107 201.252H39.1566C39.3417 200.939 39.4734 200.611 39.5517 200.27C39.6299 199.921 39.6798 199.522 39.7011 199.074L39.4342 195.636H34.8114L34.5445 199.074C34.5445 199.095 34.541 199.12 34.5339 199.149ZM35.6015 185.323L34.9823 193.352H39.2634L38.6442 185.334L35.6015 185.323Z" fill="white" fill-opacity="0.87"/>
<path d="M466 170.252V172.252H25V170.252H466Z" fill="white"/>
<path d="M436.437 151.92C436.437 153.549 436.497 154.753 436.619 155.531C436.862 157.015 437.361 158.279 438.114 159.325H426.624C427.329 158.06 427.804 156.735 428.047 155.349C428.168 154.644 428.229 153.501 428.229 151.92V103.515C428.229 102.056 428.144 100.804 427.974 99.7582C427.779 98.6153 427.329 97.4116 426.624 96.147H438.114C437.385 97.1927 436.886 98.4694 436.619 99.9771C436.497 100.658 436.437 101.837 436.437 103.515V122.812C438.09 120.526 439.318 118.811 440.121 117.668C442.844 113.826 444.607 111.37 445.41 110.3C448.304 106.263 450.14 103.673 450.918 102.53C451.769 101.266 452.182 99.9041 452.158 98.4451C452.134 97.6426 451.988 96.8766 451.72 96.147H464.888C464.159 97.1927 463.66 98.4694 463.393 99.9771C463.247 100.804 463.174 101.983 463.174 103.515V151.811C463.174 153.294 463.247 154.498 463.393 155.422C463.636 156.881 464.135 158.158 464.888 159.252H453.398C454.104 157.987 454.578 156.662 454.821 155.276C454.942 154.571 455.003 153.416 455.003 151.811V110.482L443.258 126.824C441.361 129.45 439.513 132.089 437.713 134.74C437.324 135.323 437.02 135.919 436.801 136.527C436.607 137.524 436.497 138.278 436.473 138.788L436.437 151.92ZM449.021 93.5207C448.802 93.5937 448.413 93.6544 447.854 93.7031C447.294 93.7517 446.723 93.7882 446.139 93.8125C445.58 93.8125 445.082 93.8004 444.644 93.776C444.23 93.7517 444.048 93.7152 444.097 93.6666C441.106 93.01 438.163 91.3078 435.269 88.5598L439.063 83.3801C440.036 84.9851 441.215 86.3226 442.601 87.3926C444.012 88.4626 445.361 88.9976 446.65 88.9976C447.89 88.9976 449.216 88.4626 450.626 87.3926C452.036 86.3226 453.216 84.9851 454.164 83.3801L457.958 88.5598C455.064 91.3078 452.085 92.9614 449.021 93.5207Z" fill="white" fill-opacity="0.87"/>
<path d="M391.452 151.774C391.452 153.403 391.513 154.607 391.634 155.385C391.877 156.869 392.376 158.133 393.13 159.179H381.64C382.345 157.914 382.819 156.589 383.062 155.203C383.184 154.498 383.245 153.355 383.245 151.774V103.515C383.245 102.056 383.16 100.804 382.989 99.7582C382.795 98.6152 382.345 97.4115 381.64 96.147H393.13C392.4 97.1926 391.902 98.4693 391.634 99.977C391.513 100.658 391.452 101.837 391.452 103.515V122.812C393.106 120.526 394.334 118.811 395.136 117.668C397.86 113.826 399.623 111.37 400.425 110.3C403.319 106.263 405.155 103.673 405.933 102.53C406.784 101.266 407.198 99.9041 407.173 98.445C407.149 97.6425 407.003 96.8765 406.736 96.147H419.904C419.174 97.1926 418.676 98.4693 418.408 99.977C418.262 100.804 418.189 101.983 418.189 103.515V151.811C418.189 153.294 418.262 154.498 418.408 155.422C418.652 156.881 419.15 158.158 419.904 159.252H408.414C409.119 157.987 409.593 156.662 409.836 155.276C409.958 154.571 410.019 153.416 410.019 151.811V110.482L398.273 126.824C396.376 129.45 394.528 132.089 392.729 134.74C392.34 135.323 392.036 135.919 391.817 136.527C391.622 137.524 391.513 138.278 391.488 138.788L391.452 151.774Z" fill="white" fill-opacity="0.87"/>
<path d="M377.119 96.147C375.368 97.3872 373.447 98.8584 371.355 100.561C370.407 101.387 369.106 102.518 367.452 103.953L354.029 115.48C354.394 116.185 355.938 119.395 358.661 125.11L370.297 149.403C371.124 151.081 372.121 152.771 373.289 154.473C374.48 156.151 375.696 157.744 376.936 159.252H362.783C362.783 158.741 362.808 158.377 362.856 158.158C362.856 157.793 362.868 157.538 362.893 157.392C362.893 156.078 362.747 154.656 362.455 153.124C362.212 151.884 361.847 150.753 361.361 149.731L348.338 122.666V151.811C348.338 154.34 348.8 156.82 349.724 159.252H338.635C339.292 157.817 339.73 156.407 339.949 155.021C340.095 154.072 340.168 153.002 340.168 151.811V103.515C340.168 102.397 340.107 101.339 339.985 100.342C339.815 98.8827 339.365 97.4845 338.635 96.147H349.724C348.8 98.4815 348.338 100.938 348.338 103.515V110.409C349.579 109.291 351.354 107.662 353.664 105.522L358.151 101.327C358.661 100.865 359.05 100.172 359.318 99.2475C359.464 98.6152 359.537 97.5817 359.537 96.147H377.119Z" fill="white" fill-opacity="0.87"/>
<path d="M334.293 159.763C327.629 158.158 321.501 155.483 315.908 151.738C309.732 147.604 304.965 142.789 301.609 137.293C297.84 131.116 295.943 124.38 295.919 117.085C295.919 110.884 297.755 105.765 301.427 101.728C305.123 97.6669 309.756 95.6242 315.325 95.5999C316.784 95.5999 318.352 95.6485 320.03 95.7458C324.334 96.0133 326.815 96.147 327.471 96.147V107.163C325.502 105.874 323.714 104.962 322.109 104.427C320.699 103.965 318.875 103.734 316.638 103.734C312.771 103.734 309.744 105.108 307.555 107.856C305.537 110.385 304.515 113.632 304.491 117.595C304.442 123.407 306.291 129.025 310.035 134.448C313.197 139.019 317.27 142.825 322.255 145.865C326.705 148.564 330.718 149.938 334.293 149.987V159.763Z" fill="white" fill-opacity="0.87"/>
<path d="M274.898 127.408C275.068 127.626 275.384 128.064 275.846 128.721C276.333 129.353 276.892 130.107 277.524 130.982C278.157 131.858 278.838 132.806 279.567 133.828C280.297 134.825 281.002 135.809 281.683 136.782C282.364 137.731 282.984 138.606 283.543 139.408C284.102 140.187 284.54 140.807 284.856 141.269C285.561 142.242 286.388 143.482 287.337 144.989C288.285 146.473 289.379 148.248 290.62 150.315C291.228 151.531 291.531 152.832 291.531 154.218C291.531 155.191 291.373 156.005 291.057 156.662C290.765 157.294 290.316 157.805 289.708 158.194C289.124 158.583 288.382 158.851 287.483 158.997C286.583 159.142 285.537 159.215 284.346 159.215H256.587C257.122 158.389 257.523 157.44 257.79 156.37C258.058 155.3 258.192 153.926 258.192 152.248V103.698C258.192 100.39 257.657 97.91 256.587 96.2563H267.53C266.533 98.3234 266.034 100.804 266.034 103.698V117.085L274.898 127.408ZM266.034 128.903V151.92H277.378C278.4 151.92 279.202 151.786 279.786 151.519C280.394 151.251 280.613 150.801 280.443 150.169C280.199 149.245 279.701 148.126 278.947 146.813C278.217 145.5 277.354 144.114 276.357 142.655C275.384 141.196 274.339 139.725 273.22 138.241C272.126 136.734 271.08 135.347 270.083 134.083C269.11 132.818 268.247 131.724 267.493 130.8C266.764 129.876 266.277 129.244 266.034 128.903Z" fill="white" fill-opacity="0.87"/>
<path d="M225.348 104.828L221.737 151.811C221.737 151.884 221.725 151.969 221.7 152.066C221.7 152.139 221.7 152.224 221.7 152.321C221.7 152.71 221.725 153.172 221.773 153.707C221.846 154.242 221.956 154.826 222.101 155.458C222.247 156.066 222.442 156.699 222.685 157.355C222.928 158.012 223.232 158.644 223.597 159.252H210.465C210.927 158.547 211.341 157.89 211.706 157.282C212.07 156.65 212.374 156.042 212.617 155.458C212.885 154.875 213.092 154.291 213.238 153.707C213.408 153.1 213.529 152.443 213.602 151.738C213.602 151.616 213.651 151.008 213.748 149.914C213.846 148.795 213.967 147.373 214.113 145.646C214.259 143.92 214.417 141.974 214.587 139.81C214.782 137.621 214.964 135.396 215.134 133.135C215.329 130.849 215.523 128.611 215.718 126.423C215.913 124.234 216.083 122.264 216.229 120.514C216.375 118.763 216.484 117.328 216.557 116.209C216.654 115.066 216.715 114.41 216.739 114.24C216.91 112.051 217.043 110.227 217.141 108.768C217.238 107.309 217.311 106.142 217.359 105.266C217.408 104.391 217.432 103.771 217.432 103.406C217.457 103.041 217.469 102.859 217.469 102.859C217.469 100.062 216.897 97.8249 215.754 96.147H229.798H245.702C245.289 96.7063 244.972 97.2656 244.754 97.8249C244.535 98.3842 244.364 98.9679 244.243 99.5758C244.121 100.184 244.048 100.816 244.024 101.473C244 102.105 243.988 102.786 243.988 103.515C243.988 104.245 244.036 105.461 244.133 107.163C244.231 108.865 244.352 110.859 244.498 113.145C244.644 115.431 244.814 117.936 245.009 120.659C245.228 123.359 245.434 126.082 245.629 128.83C245.848 131.578 246.055 134.253 246.249 136.855C246.468 139.457 246.663 141.804 246.833 143.895C247.027 145.987 247.173 147.737 247.27 149.148C247.392 150.534 247.477 151.397 247.526 151.738C247.526 152.321 247.611 152.941 247.781 153.598C247.976 154.23 248.219 154.875 248.511 155.531C248.803 156.188 249.131 156.832 249.496 157.465C249.885 158.097 250.274 158.693 250.663 159.252H237.495C238.127 158.182 238.577 157.063 238.844 155.896C239.112 154.705 239.282 153.343 239.355 151.811L235.744 104.865L225.348 104.828Z" fill="white" fill-opacity="0.87"/>
<path d="M209.418 127.444C209.418 136.515 207.327 143.895 203.144 149.586C198.427 156.03 191.727 159.252 183.046 159.252C174.778 159.252 168.382 156.139 163.859 149.914C159.871 144.394 157.877 137.329 157.877 128.721C157.877 119.091 159.749 111.492 163.494 105.923C167.896 99.3812 174.668 96.0861 183.812 96.0375C191.812 96.0132 198.074 98.7368 202.597 104.208C207.12 109.68 209.394 117.425 209.418 127.444ZM201.284 126.751C201.284 119.966 199.74 114.434 196.651 110.154C193.417 105.68 188.955 103.442 183.264 103.442C177.647 103.442 173.282 105.923 170.169 110.884C167.373 115.382 165.962 121.158 165.938 128.21C165.938 134.338 167.263 139.554 169.914 143.859C173.051 148.965 177.501 151.519 183.264 151.519C189.004 151.519 193.527 149.002 196.834 143.968C199.776 139.469 201.26 133.73 201.284 126.751Z" fill="white" fill-opacity="0.87"/>
<path d="M155.398 96.147C153.647 97.3872 151.726 98.8584 149.635 100.561C148.687 101.387 147.386 102.518 145.732 103.953L132.309 115.48C132.673 116.185 134.217 119.395 136.941 125.11L148.577 149.403C149.404 151.081 150.401 152.771 151.568 154.473C152.76 156.151 153.976 157.744 155.216 159.252H141.063C141.063 158.741 141.087 158.377 141.136 158.158C141.136 157.793 141.148 157.538 141.172 157.392C141.172 156.078 141.026 154.656 140.735 153.124C140.492 151.884 140.127 150.753 139.64 149.731L126.618 122.666V151.811C126.618 154.34 127.08 156.82 128.004 159.252H116.915C117.572 157.817 118.01 156.407 118.228 155.021C118.374 154.072 118.447 153.002 118.447 151.811V103.515C118.447 102.397 118.387 101.339 118.265 100.342C118.095 98.8827 117.645 97.4845 116.915 96.147H128.004C127.08 98.4815 126.618 100.938 126.618 103.515V110.409C127.858 109.291 129.634 107.662 131.944 105.522L136.43 101.327C136.941 100.865 137.33 100.172 137.598 99.2475C137.744 98.6152 137.817 97.5817 137.817 96.147H155.398Z" fill="white" fill-opacity="0.87"/>
<path d="M81.5239 151.774C81.5239 153.403 81.5847 154.607 81.7063 155.385C81.9495 156.869 82.448 158.133 83.2019 159.179H71.7117C72.4169 157.914 72.8911 156.589 73.1343 155.203C73.2559 154.498 73.3167 153.355 73.3167 151.774V103.515C73.3167 102.056 73.2315 100.804 73.0613 99.7582C72.8668 98.6152 72.4169 97.4115 71.7117 96.147H83.2019C82.4723 97.1926 81.9738 98.4693 81.7063 99.977C81.5847 100.658 81.5239 101.837 81.5239 103.515V122.812C83.1776 120.526 84.4056 118.811 85.2081 117.668C87.9317 113.826 89.6948 111.37 90.4973 110.3C93.3911 106.263 95.2271 103.673 96.0053 102.53C96.8564 101.266 97.2698 99.9041 97.2455 98.445C97.2212 97.6425 97.0753 96.8765 96.8078 96.147H109.976C109.246 97.1926 108.748 98.4693 108.48 99.977C108.334 100.804 108.261 101.983 108.261 103.515V151.811C108.261 153.294 108.334 154.498 108.48 155.422C108.724 156.881 109.222 158.158 109.976 159.252H98.4857C99.1909 157.987 99.6651 156.662 99.9083 155.276C100.03 154.571 100.091 153.416 100.091 151.811V110.482L88.3451 126.824C86.4483 129.45 84.6002 132.089 82.8006 134.74C82.4115 135.323 82.1076 135.919 81.8887 136.527C81.6942 137.524 81.5847 138.278 81.5604 138.788L81.5239 151.774Z" fill="white" fill-opacity="0.87"/>
<path d="M36.4084 128.101V151.811C36.4084 153.416 36.4692 154.571 36.5908 155.276C36.834 156.662 37.3082 157.987 38.0134 159.252H26.5232C27.277 158.158 27.7756 156.881 28.0187 155.422C28.1647 154.498 28.2376 153.294 28.2376 151.811V103.515C28.2376 101.983 28.1647 100.804 28.0187 99.977C27.7512 98.4693 27.2527 97.1926 26.5232 96.147H38.0864C37.3568 97.2656 36.8948 98.4207 36.7002 99.6123C36.5057 100.804 36.4084 102.105 36.4084 103.515V107.637H55.267V103.515C55.267 101.813 55.1819 100.634 55.0116 99.977C54.7684 98.445 54.2942 97.1683 53.589 96.147H65.0792C64.4713 97.1683 64.0093 98.3356 63.6931 99.6488C63.4986 101.205 63.4013 102.494 63.4013 103.515V151.811C63.4013 153.27 63.4743 154.425 63.6202 155.276C63.8877 156.686 64.3497 158.012 65.0063 159.252H53.589C54.2942 158.255 54.7684 156.978 55.0116 155.422C55.1819 154.352 55.267 153.148 55.267 151.811V128.101V115.844H36.4084V128.101Z" fill="white" fill-opacity="0.87"/>
<path d="M103 47.7521C37.5054 43.3268 7 79.0854 0 96.2521C32.8 64.2521 82 59.7521 103 59.7521C138.167 59.4188 215 61.7521 246 60.2521C274.095 58.8927 315.878 52.1706 338.704 44.743C305.402 54.781 208.988 54.9134 103 47.7521Z" fill="#DC463E"/>
<path d="M195.5 53.2521C229.5 36.9188 312.5 9.5521 372.5 30.7521C352.833 16.0854 289.9 0.0521049 195.5 53.2521Z" fill="#DC463E"/>
<path d="M432 31.2521C318 -19.9479 217.5 24.2521 181.5 52.7521C226 6.75208 342.5 -21.2479 436 20.2521C510.8 53.4521 495.167 96.4188 478 113.752C496.8 70.1521 455.167 40.5854 432 31.2521Z" fill="#DC463E"/>
</svg>
