<svg width="202" height="83" viewBox="0 0 202 83" fill="none" xmlns="http://www.w3.org/2000/svg">
<path d="M187.011 79.8459V81.4491C187.011 81.7956 187.071 82.0927 187.19 82.3402H185.88C186.008 82.1422 186.072 81.8451 186.072 81.4491V75.6349C186.072 75.4339 186.056 75.2694 186.024 75.1413C185.992 75.0131 185.944 74.8996 185.88 74.8005H189.204C189.347 74.8005 189.472 74.8093 189.58 74.8267C189.687 74.8442 189.776 74.8763 189.846 74.9228C189.919 74.9694 189.973 75.0321 190.008 75.1107C190.046 75.1864 190.064 75.2825 190.064 75.399C190.064 75.565 190.028 75.7208 189.955 75.8664C189.807 76.1139 189.676 76.328 189.562 76.5085C189.449 76.6862 189.35 76.8332 189.265 76.9497C189.227 77.0051 189.175 77.0808 189.108 77.1769C189.041 77.2701 188.967 77.3749 188.885 77.4914C188.803 77.605 188.719 77.7229 188.632 77.8452C188.544 77.9646 188.463 78.0767 188.387 78.1816C188.311 78.2864 188.244 78.3782 188.186 78.4568C188.131 78.5325 188.093 78.5835 188.073 78.6097L187.011 79.8459ZM187.011 78.4306C187.04 78.3898 187.098 78.3141 187.186 78.2034C187.276 78.0928 187.379 77.9617 187.496 77.8103C187.615 77.6589 187.741 77.4943 187.872 77.3167C188.006 77.1361 188.131 76.9585 188.247 76.7837C188.367 76.609 188.47 76.443 188.557 76.2858C188.648 76.1285 188.707 75.9945 188.736 75.8839C188.757 75.8082 188.731 75.7543 188.658 75.7222C188.588 75.6902 188.492 75.6742 188.37 75.6742H187.011V78.4306Z" fill="#1D2025" fill-opacity="0.9"/>
<path d="M174.838 74.6128C174.838 74.9302 174.717 75.1967 174.476 75.4122C174.237 75.6248 173.956 75.7311 173.632 75.7311H172.824V81.4535C172.824 81.6457 172.832 81.7841 172.846 81.8685C172.875 82.0345 172.932 82.1932 173.017 82.3447H171.641C171.731 82.2136 171.791 82.0607 171.82 81.886C171.834 81.7928 171.841 81.6486 171.841 81.4535V75.7049H170.924C170.668 75.7049 170.374 75.7937 170.042 75.9713V74.7875H173.899C174.085 74.7875 174.27 74.7642 174.454 74.7176C174.48 74.7176 174.608 74.6827 174.838 74.6128Z" fill="#1D2025" fill-opacity="0.9"/>
<path d="M155.752 78.6142V81.4536C155.752 81.6458 155.76 81.7841 155.774 81.8686C155.803 82.0346 155.86 82.1933 155.944 82.3447H154.568C154.659 82.2137 154.718 82.0608 154.748 81.886C154.765 81.7754 154.774 81.6312 154.774 81.4536V75.67C154.774 75.4865 154.765 75.3453 154.748 75.2463C154.716 75.0657 154.656 74.9128 154.568 74.7876H155.953C155.866 74.9216 155.811 75.0599 155.787 75.2026C155.764 75.3453 155.752 75.5011 155.752 75.67V76.1636H158.011V75.67C158.011 75.4661 158 75.3249 157.98 75.2463C157.951 75.0628 157.894 74.9099 157.81 74.7876H159.186C159.113 74.9099 159.058 75.0497 159.02 75.207C158.996 75.3933 158.985 75.5477 158.985 75.67V81.4536C158.985 81.6283 158.994 81.7667 159.011 81.8686C159.043 82.0375 159.098 82.1962 159.177 82.3447H157.81C157.894 82.2253 157.951 82.0724 157.98 81.886C158 81.7579 158.011 81.6138 158.011 81.4536V78.6142V77.1465H155.752V78.6142Z" fill="#1D2025" fill-opacity="0.9"/>
<path d="M140.395 77.1465V81.3706H142.308C142.521 81.3706 142.711 81.3371 142.88 81.2701C142.927 81.2439 143.032 81.1857 143.195 81.0954V82.3447H139.211C139.301 82.2137 139.361 82.0608 139.39 81.886C139.408 81.7754 139.416 81.6312 139.416 81.4536V75.67C139.416 75.4865 139.408 75.3453 139.39 75.2463C139.358 75.0657 139.298 74.9128 139.211 74.7876H143.195V76.0369C143.023 75.9292 142.892 75.8593 142.802 75.8272C142.682 75.7836 142.518 75.7617 142.308 75.7617H140.395V76.1636H142.832V77.4173C142.672 77.3183 142.541 77.2499 142.439 77.212C142.32 77.1683 142.155 77.1465 141.946 77.1465H140.395Z" fill="#1D2025" fill-opacity="0.9"/>
<path d="M126.382 81.3837V75.67C126.382 75.4894 126.373 75.3482 126.356 75.2463C126.327 75.0686 126.267 74.9157 126.177 74.7876H127.553C127.471 74.9361 127.419 75.0817 127.395 75.2244C127.372 75.3642 127.36 75.5127 127.36 75.67V81.3881H128.068V83C127.786 82.5282 127.489 82.3156 127.177 82.3622L123.106 82.3447C123.196 82.2137 123.256 82.0608 123.285 81.8861C123.302 81.7754 123.311 81.6312 123.311 81.4536V75.67C123.311 75.4865 123.302 75.3453 123.285 75.2463C123.253 75.0657 123.193 74.9128 123.106 74.7876H124.56C124.38 75.1079 124.29 75.4021 124.29 75.67V81.3706L125.718 81.375L126.382 81.3837Z" fill="#1D2025" fill-opacity="0.9"/>
<path d="M109.377 79.2257C109.197 79.4121 109.026 79.6086 108.866 79.8154C108.706 80.0222 108.574 80.2391 108.469 80.4663C108.367 80.6905 108.3 80.9235 108.268 81.1652C108.236 81.4069 108.259 81.6545 108.338 81.9078C108.358 81.9719 108.377 82.0185 108.394 82.0476C108.412 82.0767 108.431 82.1044 108.451 82.1306C108.475 82.1568 108.501 82.1903 108.53 82.2311C108.562 82.2718 108.601 82.3344 108.648 82.4189L107.158 82.4233C107.182 82.3883 107.208 82.349 107.237 82.3053C107.269 82.2587 107.282 82.2063 107.276 82.1481C107.241 81.8161 107.25 81.4899 107.302 81.1696C107.358 80.8492 107.458 80.5274 107.604 80.2042C107.749 79.8809 107.942 79.5548 108.18 79.2257C108.422 78.8937 108.713 78.5544 109.054 78.2079L108.041 75.6961C107.997 75.5913 107.953 75.4981 107.91 75.4166C107.866 75.335 107.819 75.2593 107.77 75.1894C107.723 75.1166 107.672 75.0482 107.617 74.9841C107.564 74.92 107.508 74.8545 107.447 74.7875H109.006C108.991 74.8429 108.98 74.8894 108.971 74.9273C108.962 74.9622 108.955 74.9928 108.949 75.019C108.946 75.0452 108.943 75.0685 108.94 75.0889C108.94 75.1064 108.94 75.1268 108.94 75.1501C108.94 75.2345 108.946 75.3204 108.958 75.4078C108.97 75.4923 108.986 75.5738 109.006 75.6524L109.762 77.509C109.852 77.4041 109.938 77.2935 110.019 77.177C110.104 77.0605 110.18 76.9454 110.247 76.8319C110.316 76.7183 110.375 76.6091 110.421 76.5043C110.471 76.3965 110.507 76.2989 110.531 76.2116C110.571 76.0485 110.59 75.8956 110.587 75.7529C110.587 75.6102 110.567 75.4559 110.526 75.2899C110.509 75.2258 110.491 75.1792 110.474 75.1501C110.459 75.121 110.44 75.0933 110.417 75.0671C110.394 75.0409 110.366 75.0074 110.334 74.9666C110.302 74.9258 110.263 74.8632 110.216 74.7788L111.706 74.7744C111.682 74.8094 111.655 74.8501 111.623 74.8967C111.593 74.9404 111.582 74.9914 111.588 75.0496C111.617 75.3263 111.612 75.6073 111.575 75.8927C111.537 76.1752 111.461 76.462 111.347 76.7532C111.234 77.0445 111.079 77.3371 110.884 77.6313C110.689 77.9225 110.45 78.2152 110.168 78.5093L111.312 81.3793C111.388 81.5685 111.476 81.7433 111.575 81.9034C111.674 82.0636 111.783 82.2107 111.902 82.3446H110.321C110.365 82.2456 110.386 82.1189 110.386 81.9646C110.386 81.8452 110.379 81.7404 110.365 81.6501C110.35 81.5598 110.328 81.4812 110.299 81.4142C110.284 81.3793 110.257 81.3108 110.216 81.2089C110.175 81.1041 110.129 80.9847 110.076 80.8507C110.024 80.7138 109.968 80.5697 109.91 80.4182C109.855 80.2668 109.802 80.1241 109.753 79.9901C109.703 79.8562 109.661 79.7411 109.626 79.645C109.591 79.5489 109.569 79.4878 109.561 79.4616L109.443 79.1733L109.377 79.2257Z" fill="#1D2025" fill-opacity="0.9"/>
<path d="M93.3254 77.1465V81.3706H95.2387C95.4513 81.3706 95.6421 81.3371 95.811 81.2701C95.8576 81.2439 95.9624 81.1857 96.1255 81.0954V82.3447H92.1416C92.2319 82.2137 92.2916 82.0608 92.3207 81.886C92.3382 81.7754 92.3469 81.6312 92.3469 81.4536V75.67C92.3469 75.4865 92.3382 75.3453 92.3207 75.2463C92.2887 75.0657 92.229 74.9128 92.1416 74.7876H96.1255V76.0369C95.9537 75.9292 95.8226 75.8593 95.7323 75.8272C95.6129 75.7836 95.4484 75.7617 95.2387 75.7617H93.3254V76.1636H95.7629V77.4173C95.6027 77.3183 95.4717 77.2499 95.3698 77.212C95.2504 77.1683 95.0858 77.1465 94.8761 77.1465H93.3254Z" fill="#1D2025" fill-opacity="0.9"/>
<path d="M81.1306 74.6128C81.1306 74.9302 81.0097 75.1967 80.768 75.4122C80.5292 75.6248 80.2482 75.7311 79.925 75.7311H79.1168V81.4535C79.1168 81.6457 79.1241 81.7841 79.1387 81.8685C79.1678 82.0345 79.2246 82.1932 79.309 82.3447H77.933C78.0233 82.2136 78.083 82.0607 78.1121 81.886C78.1267 81.7928 78.134 81.6486 78.134 81.4535V75.7049H77.2166C76.9603 75.7049 76.6662 75.7937 76.3342 75.9713V74.7875H80.1914C80.3778 74.7875 80.5627 74.7642 80.7462 74.7176C80.7724 74.7176 80.9005 74.6827 81.1306 74.6128Z" fill="#1D2025" fill-opacity="0.9"/>
<path d="M65.7103 78.5355C65.7103 79.6218 65.4599 80.5056 64.959 81.1871C64.394 81.9588 63.5917 82.3447 62.5521 82.3447C61.5619 82.3447 60.796 81.9719 60.2544 81.2264C59.7768 80.5653 59.538 79.7193 59.538 78.6884C59.538 77.5352 59.7622 76.6251 60.2107 75.9582C60.7378 75.1749 61.5488 74.7803 62.6438 74.7744C63.6019 74.7715 64.3518 75.0977 64.8935 75.7529C65.4351 76.4082 65.7074 77.3357 65.7103 78.5355ZM64.7362 78.4525C64.7362 77.64 64.5513 76.9775 64.1814 76.465C63.7941 75.9291 63.2597 75.6612 62.5783 75.6612C61.9056 75.6612 61.3828 75.9582 61.0101 76.5523C60.6752 77.0911 60.5063 77.7827 60.5034 78.6273C60.5034 79.3611 60.6621 79.9858 60.9795 80.5012C61.3552 81.1128 61.8881 81.4186 62.5783 81.4186C63.2656 81.4186 63.8072 81.1172 64.2033 80.5143C64.5557 79.9756 64.7333 79.2883 64.7362 78.4525Z" fill="#1D2025" fill-opacity="0.9"/>
<path d="M48.776 74.6128C48.776 74.9302 48.6551 75.1967 48.4134 75.4122C48.1746 75.6248 47.8936 75.7311 47.5703 75.7311H46.7622V81.4535C46.7622 81.6457 46.7695 81.7841 46.7841 81.8685C46.8132 82.0345 46.87 82.1932 46.9544 82.3447H45.5784C45.6687 82.2136 45.7284 82.0607 45.7575 81.886C45.7721 81.7928 45.7793 81.6486 45.7793 81.4535V75.7049H44.862C44.6057 75.7049 44.3116 75.7937 43.9796 75.9713V74.7875H47.8368C48.0232 74.7875 48.2081 74.7642 48.3916 74.7176C48.4178 74.7176 48.5459 74.6827 48.776 74.6128Z" fill="#1D2025" fill-opacity="0.9"/>
<path d="M33.4498 78.2298C33.4498 78.8676 33.1979 79.517 32.6941 80.1781C32.2369 80.778 31.6603 81.2803 30.9643 81.6851C30.2158 82.119 29.4892 82.3389 28.7845 82.3447C28.8748 82.2137 28.9345 82.0608 28.9636 81.886C28.9811 81.7754 28.9898 81.6312 28.9898 81.4536V75.67C28.9898 75.4865 28.9811 75.3453 28.9636 75.2463C28.9315 75.0657 28.8719 74.9128 28.7845 74.7876H31.7331C32.1058 74.7876 32.3941 74.8473 32.598 74.9667C32.863 75.121 32.997 75.3729 32.9999 75.7224C33.0028 76.1534 32.7742 76.4621 32.3141 76.6485C32.6519 76.7388 32.9285 76.9382 33.144 77.2469C33.3479 77.544 33.4498 77.8716 33.4498 78.2298ZM31.9122 75.9146C31.9122 75.8389 31.883 75.7821 31.8248 75.7443C31.7578 75.7006 31.6748 75.6787 31.5758 75.6787H29.9683V76.1854H31.5758C31.6748 76.1854 31.7578 76.1607 31.8248 76.1112C31.883 76.0588 31.9122 75.9932 31.9122 75.9146ZM32.3665 78.3521C32.3665 77.9997 32.2471 77.7071 32.0083 77.4741C31.7724 77.2382 31.4783 77.1203 31.1259 77.1203H29.9683V80.9731C30.3148 80.8974 30.6818 80.7124 31.0691 80.4183C31.4244 80.1475 31.7156 79.8519 31.9428 79.5315C32.2252 79.1355 32.3665 78.7423 32.3665 78.3521Z" fill="#1D2025" fill-opacity="0.9"/>
<path d="M14.1299 81.4842C14.1299 81.4929 14.1299 81.5031 14.1299 81.5147C14.1299 81.5613 14.1328 81.6167 14.1387 81.6807C14.1474 81.7448 14.1605 81.8147 14.178 81.8904C14.1954 81.9632 14.2187 82.0389 14.2479 82.1176C14.277 82.1962 14.3134 82.2719 14.3571 82.3447H12.7845C12.8398 82.2603 12.8893 82.1816 12.933 82.1088C12.9767 82.0331 13.0131 81.9603 13.0422 81.8904C13.0742 81.8205 13.099 81.7506 13.1165 81.6807C13.1369 81.6079 13.1514 81.5293 13.1602 81.4449C13.1602 81.4303 13.166 81.3575 13.1776 81.2264C13.1893 81.0925 13.2038 80.9221 13.2213 80.7154C13.2388 80.5086 13.2577 80.2756 13.2781 80.0164C13.3014 79.7543 13.3232 79.4879 13.3436 79.217C13.3669 78.9433 13.3902 78.6754 13.4135 78.4133C13.4368 78.1512 13.4572 77.9153 13.4747 77.7056C13.4921 77.4959 13.5053 77.3241 13.514 77.1902C13.5256 77.0533 13.5329 76.9746 13.5358 76.9543C13.5562 76.6922 13.5722 76.4738 13.5839 76.299C13.5955 76.1243 13.6043 75.9845 13.6101 75.8797C13.6159 75.7748 13.6188 75.7006 13.6188 75.6569L13.6232 75.5914C13.6232 75.2565 13.5548 74.9885 13.4179 74.7876H17.0042C16.9547 74.8546 16.9169 74.9216 16.8907 74.9885C16.8645 75.0555 16.8441 75.1254 16.8295 75.1982C16.815 75.271 16.8062 75.3467 16.8033 75.4254C16.8004 75.5011 16.7989 75.5826 16.7989 75.67C16.7989 75.7574 16.8048 75.903 16.8164 76.1068C16.8281 76.3107 16.8426 76.5495 16.8601 76.8232C16.8776 77.097 16.8979 77.3969 16.9212 77.7231C16.9475 78.0463 16.9722 78.3725 16.9955 78.7016C17.0217 79.0307 17.0465 79.351 17.0698 79.6626C17.096 79.9742 17.1193 80.2552 17.1397 80.5057C17.163 80.7561 17.1804 80.9658 17.1921 81.1347C17.2066 81.3007 17.2168 81.4041 17.2227 81.4449C17.2227 81.5147 17.2328 81.589 17.2532 81.6676C17.2765 81.7434 17.3057 81.8205 17.3406 81.8992C17.3755 81.9778 17.4149 82.055 17.4585 82.1307C17.5051 82.2064 17.5517 82.2777 17.5983 82.3447H16.0214C16.0971 82.2166 16.151 82.0826 16.183 81.9428C16.215 81.8001 16.2354 81.6371 16.2442 81.4536L16.135 80.047H14.2435L14.1343 81.4536C14.1343 81.4623 14.1328 81.4725 14.1299 81.4842ZM14.5667 75.8272L14.3134 79.1122H16.0651L15.8117 75.8316L14.5667 75.8272Z" fill="#1D2025" fill-opacity="0.9"/>
<path d="M190.67 69.6606V70.479H10.2291V69.6606H190.67Z" fill="#1D2025"/>
<path d="M178.573 62.16C178.573 62.8266 178.598 63.3191 178.648 63.6375C178.748 64.2445 178.951 64.7619 179.26 65.1897H174.559C174.847 64.6723 175.041 64.1301 175.141 63.5629C175.19 63.2744 175.215 62.8067 175.215 62.16V42.3545C175.215 41.7575 175.18 41.2451 175.111 40.8173C175.031 40.3496 174.847 39.8571 174.559 39.3397H179.26C178.961 39.7676 178.757 40.2899 178.648 40.9068C178.598 41.1854 178.573 41.668 178.573 42.3545V50.2498C179.25 49.3145 179.752 48.6131 180.081 48.1454C181.195 46.5733 181.917 45.5684 182.245 45.1306C183.429 43.4789 184.18 42.4192 184.499 41.9516C184.847 41.4342 185.016 40.877 185.006 40.28C184.996 39.9516 184.936 39.6382 184.827 39.3397H190.215C189.916 39.7676 189.712 40.2899 189.603 40.9068C189.543 41.2451 189.513 41.7277 189.513 42.3545V62.1152C189.513 62.7221 189.543 63.2147 189.603 63.5928C189.702 64.1898 189.906 64.7121 190.215 65.1599H185.514C185.802 64.6425 185.996 64.1002 186.096 63.5331C186.145 63.2445 186.17 62.7719 186.17 62.1152V45.2052L181.364 51.8916C180.588 52.9662 179.832 54.0458 179.096 55.1303C178.937 55.3691 178.812 55.6129 178.723 55.8616C178.643 56.2696 178.598 56.578 178.588 56.787L178.573 62.16ZM183.723 38.2651C183.633 38.295 183.474 38.3198 183.245 38.3397C183.016 38.3596 182.782 38.3746 182.543 38.3845C182.315 38.3845 182.111 38.3795 181.932 38.3696C181.762 38.3596 181.688 38.3447 181.708 38.3248C180.484 38.0562 179.28 37.3597 178.096 36.2353L179.648 34.116C180.046 34.7727 180.529 35.3199 181.096 35.7577C181.673 36.1955 182.225 36.4144 182.752 36.4144C183.26 36.4144 183.802 36.1955 184.379 35.7577C184.956 35.3199 185.439 34.7727 185.827 34.116L187.379 36.2353C186.195 37.3597 184.976 38.0363 183.723 38.2651Z" fill="#1D2025" fill-opacity="0.9"/>
<path d="M160.167 62.1002C160.167 62.7668 160.192 63.2593 160.242 63.5777C160.341 64.1847 160.545 64.7021 160.854 65.1299H156.152C156.441 64.6125 156.635 64.0703 156.735 63.5031C156.784 63.2146 156.809 62.7469 156.809 62.1002V42.3544C156.809 41.7574 156.774 41.245 156.705 40.8172C156.625 40.3495 156.441 39.857 156.152 39.3396H160.854C160.555 39.7674 160.351 40.2898 160.242 40.9067C160.192 41.1853 160.167 41.6679 160.167 42.3544V50.2497C160.844 49.3144 161.346 48.613 161.675 48.1453C162.789 46.5732 163.51 45.5683 163.839 45.1305C165.023 43.4788 165.774 42.4191 166.092 41.9515C166.441 41.4341 166.61 40.8769 166.6 40.2799C166.59 39.9515 166.53 39.6381 166.421 39.3396H171.809C171.51 39.7674 171.306 40.2898 171.197 40.9067C171.137 41.245 171.107 41.7276 171.107 42.3544V62.1151C171.107 62.722 171.137 63.2146 171.197 63.5927C171.296 64.1897 171.5 64.712 171.809 65.1598H167.107C167.396 64.6424 167.59 64.1001 167.689 63.533C167.739 63.2444 167.764 62.7718 167.764 62.1151V45.2051L162.958 51.8915C162.182 52.9661 161.426 54.0457 160.69 55.1302C160.53 55.369 160.406 55.6128 160.317 55.8615C160.237 56.2695 160.192 56.5779 160.182 56.7869L160.167 62.1002Z" fill="#1D2025" fill-opacity="0.9"/>
<path d="M154.303 39.3396C153.586 39.847 152.8 40.449 151.945 41.1455C151.557 41.4838 151.024 41.9465 150.348 42.5335L144.855 47.2498C145.004 47.5384 145.636 48.8518 146.751 51.19L151.512 61.13C151.85 61.8166 152.258 62.5081 152.736 63.2046C153.223 63.8912 153.721 64.5429 154.228 65.1598H148.437C148.437 64.9508 148.447 64.8016 148.467 64.712C148.467 64.5628 148.472 64.4583 148.482 64.3986C148.482 63.8613 148.422 63.2792 148.303 62.6524C148.203 62.1449 148.054 61.6823 147.855 61.2644L142.527 50.19V62.1151C142.527 63.1499 142.716 64.1648 143.094 65.1598H138.557C138.826 64.5727 139.005 63.9956 139.094 63.4285C139.154 63.0404 139.184 62.6026 139.184 62.1151V42.3544C139.184 41.8967 139.159 41.4639 139.109 41.056C139.039 40.459 138.855 39.8868 138.557 39.3396H143.094C142.716 40.2948 142.527 41.2997 142.527 42.3544V45.1753C143.034 44.7176 143.761 44.0509 144.706 43.1753L146.542 41.4589C146.751 41.2699 146.91 40.9863 147.019 40.6082C147.079 40.3495 147.109 39.9266 147.109 39.3396H154.303Z" fill="#1D2025" fill-opacity="0.9"/>
<path d="M136.78 65.3687C134.054 64.712 131.546 63.6175 129.258 62.0852C126.73 60.3937 124.78 58.4236 123.407 56.1749C121.865 53.6477 121.089 50.8915 121.079 47.9065C121.079 45.3693 121.83 43.2748 123.333 41.6231C124.845 39.9615 126.74 39.1257 129.019 39.1157C129.616 39.1157 130.258 39.1356 130.944 39.1754C132.705 39.2849 133.72 39.3396 133.989 39.3396V43.8469C133.183 43.3196 132.452 42.9465 131.795 42.7276C131.218 42.5385 130.472 42.444 129.556 42.444C127.974 42.444 126.735 43.0062 125.84 44.1305C125.014 45.1653 124.596 46.4936 124.586 48.1155C124.566 50.4935 125.323 52.792 126.855 55.0108C128.148 56.8814 129.815 58.4386 131.855 59.6823C133.676 60.7868 135.317 61.3489 136.78 61.3688V65.3687Z" fill="#1D2025" fill-opacity="0.9"/>
<path d="M112.478 52.1304C112.548 52.22 112.677 52.3991 112.866 52.6677C113.065 52.9264 113.294 53.2349 113.553 53.5931C113.811 53.9513 114.09 54.3393 114.388 54.7572C114.687 55.1652 114.975 55.5681 115.254 55.9661C115.533 56.3542 115.786 56.7124 116.015 57.0407C116.244 57.3591 116.423 57.6129 116.552 57.8019C116.841 58.1999 117.179 58.7074 117.567 59.3243C117.955 59.9312 118.403 60.6576 118.911 61.5033C119.159 62.0008 119.284 62.5331 119.284 63.1003C119.284 63.4983 119.219 63.8316 119.09 64.1002C118.97 64.3589 118.786 64.5679 118.537 64.7271C118.299 64.8863 117.995 64.9957 117.627 65.0554C117.259 65.1151 116.831 65.145 116.343 65.145H104.986C105.204 64.8067 105.369 64.4186 105.478 63.9808C105.588 63.5431 105.642 62.9809 105.642 62.2943V42.4292C105.642 41.076 105.423 40.0611 104.986 39.3845H109.463C109.055 40.2303 108.851 41.2452 108.851 42.4292V47.9067L112.478 52.1304ZM108.851 52.7424V62.16H113.493C113.911 62.16 114.239 62.1053 114.478 61.9958C114.727 61.8864 114.816 61.7023 114.747 61.4436C114.647 61.0655 114.443 60.6078 114.135 60.0705C113.836 59.5332 113.483 58.9661 113.075 58.3691C112.677 57.7721 112.249 57.1701 111.791 56.5631C111.344 55.9462 110.916 55.3791 110.508 54.8617C110.11 54.3443 109.757 53.8966 109.448 53.5185C109.15 53.1404 108.951 52.8817 108.851 52.7424Z" fill="#1D2025" fill-opacity="0.9"/>
<path d="M92.2039 42.8917L90.7263 62.1151C90.7263 62.1449 90.7213 62.1798 90.7114 62.2196C90.7114 62.2494 90.7114 62.2842 90.7114 62.324C90.7114 62.4832 90.7213 62.6723 90.7412 62.8912C90.7711 63.1101 90.8159 63.3489 90.8756 63.6076C90.9353 63.8563 91.0149 64.115 91.1144 64.3837C91.2139 64.6523 91.3382 64.911 91.4875 65.1598H86.1145C86.3036 64.8712 86.4727 64.6026 86.6219 64.3538C86.7712 64.0951 86.8956 63.8464 86.9951 63.6076C87.1045 63.3688 87.1891 63.13 87.2488 62.8912C87.3184 62.6424 87.3682 62.3738 87.398 62.0852C87.398 62.0355 87.4179 61.7867 87.4577 61.339C87.4975 60.8813 87.5473 60.2992 87.607 59.5928C87.6667 58.8863 87.7314 58.0903 87.801 57.2048C87.8806 56.3093 87.9552 55.3989 88.0249 54.4735C88.1045 53.5382 88.1841 52.6228 88.2637 51.7273C88.3433 50.8318 88.4129 50.0259 88.4726 49.3095C88.5323 48.5931 88.5771 48.006 88.607 47.5483C88.6468 47.0807 88.6716 46.812 88.6816 46.7424C88.7512 45.8469 88.806 45.1006 88.8458 44.5036C88.8856 43.9066 88.9154 43.429 88.9353 43.0708C88.9552 42.7126 88.9652 42.4589 88.9652 42.3097C88.9751 42.1604 88.9801 42.0858 88.9801 42.0858C88.9801 40.9415 88.7463 40.0261 88.2786 39.3396H94.0247H100.532C100.363 39.5684 100.234 39.7973 100.144 40.0261C100.054 40.255 99.9848 40.4938 99.935 40.7425C99.8853 40.9913 99.8554 41.25 99.8455 41.5186C99.8355 41.7773 99.8305 42.0559 99.8305 42.3544C99.8305 42.6529 99.8504 43.1504 99.8902 43.8469C99.93 44.5434 99.9798 45.3593 100.039 46.2946C100.099 47.2299 100.169 48.2548 100.248 49.3692C100.338 50.4736 100.423 51.588 100.502 52.7124C100.592 53.8367 100.676 54.9312 100.756 55.9959C100.845 57.0605 100.925 58.0207 100.995 58.8764C101.074 59.7321 101.134 60.4485 101.174 61.0256C101.224 61.5927 101.258 61.9459 101.278 62.0852C101.278 62.324 101.313 62.5778 101.383 62.8464C101.462 63.1051 101.562 63.3688 101.681 63.6374C101.801 63.9061 101.935 64.1698 102.084 64.4285C102.243 64.6872 102.403 64.9309 102.562 65.1598H97.1739C97.4326 64.722 97.6167 64.2643 97.7261 63.7867C97.8356 63.2991 97.9052 62.7419 97.9351 62.1151L96.4575 42.9067L92.2039 42.8917Z" fill="#1D2025" fill-opacity="0.9"/>
<path d="M85.6861 52.1454C85.6861 55.8567 84.8304 58.8765 83.119 61.2048C81.1887 63.8416 78.4475 65.1599 74.8954 65.1599C71.5124 65.1599 68.8956 63.8863 67.0449 61.3391C65.4131 59.0805 64.5972 56.19 64.5972 52.6677C64.5972 48.7276 65.3633 45.6182 66.8956 43.3397C68.6966 40.6631 71.4676 39.3149 75.2088 39.295C78.4823 39.285 81.0445 40.3994 82.8952 42.6382C84.7459 44.8769 85.6762 48.046 85.6861 52.1454ZM82.3579 51.8618C82.3579 49.0858 81.726 46.8221 80.4624 45.0709C79.139 43.2402 77.3132 42.3248 74.9849 42.3248C72.6865 42.3248 70.9005 43.3397 69.6269 45.3694C68.4826 47.2102 67.9055 49.5733 67.8956 52.4588C67.8956 54.9662 68.4379 57.1005 69.5224 58.8616C70.8059 60.9511 72.6268 61.9958 74.9849 61.9958C77.3331 61.9958 79.1838 60.966 80.537 58.9064C81.741 57.0656 82.3479 54.7174 82.3579 51.8618Z" fill="#1D2025" fill-opacity="0.9"/>
<path d="M63.5831 39.3396C62.8667 39.847 62.0807 40.449 61.225 41.1455C60.8369 41.4838 60.3046 41.9465 59.628 42.5335L54.1356 47.2498C54.2849 47.5384 54.9167 48.8518 56.0311 51.19L60.7921 61.13C61.1304 61.8166 61.5384 62.5081 62.016 63.2046C62.5035 63.8912 63.001 64.5429 63.5085 65.1598H57.7176C57.7176 64.9508 57.7276 64.8016 57.7475 64.712C57.7475 64.5628 57.7524 64.4583 57.7624 64.3986C57.7624 63.8613 57.7027 63.2792 57.5833 62.6524C57.4838 62.1449 57.3345 61.6823 57.1355 61.2644L51.8073 50.19V62.1151C51.8073 63.1499 51.9964 64.1648 52.3745 65.1598H47.8373C48.1059 64.5727 48.285 63.9956 48.3746 63.4285C48.4343 63.0404 48.4641 62.6026 48.4641 62.1151V42.3544C48.4641 41.8967 48.4393 41.4639 48.3895 41.056C48.3199 40.459 48.1358 39.8868 47.8373 39.3396H52.3745C51.9964 40.2948 51.8073 41.2997 51.8073 42.3544V45.1753C52.3148 44.7176 53.0411 44.0509 53.9864 43.1753L55.8221 41.4589C56.0311 41.2699 56.1903 40.9863 56.2997 40.6082C56.3594 40.3495 56.3893 39.9266 56.3893 39.3396H63.5831Z" fill="#1D2025" fill-opacity="0.9"/>
<path d="M33.3565 62.1002C33.3565 62.7668 33.3814 63.2593 33.4311 63.5777C33.5306 64.1847 33.7346 64.7021 34.043 65.1299H29.3417C29.6302 64.6125 29.8242 64.0703 29.9237 63.5031C29.9735 63.2146 29.9984 62.7469 29.9984 62.1002V42.3544C29.9984 41.7574 29.9635 41.245 29.8939 40.8172C29.8143 40.3495 29.6302 39.857 29.3417 39.3396H34.043C33.7445 39.7674 33.5406 40.2898 33.4311 40.9067C33.3814 41.1853 33.3565 41.6679 33.3565 42.3544V50.2497C34.0331 49.3144 34.5356 48.613 34.8639 48.1453C35.9783 46.5732 36.6997 45.5683 37.028 45.1305C38.2121 43.4788 38.9633 42.4191 39.2817 41.9515C39.6299 41.4341 39.7991 40.8769 39.7891 40.2799C39.7792 39.9515 39.7195 39.6381 39.61 39.3396H44.998C44.6995 39.7674 44.4955 40.2898 44.386 40.9067C44.3263 41.245 44.2965 41.7276 44.2965 42.3544V62.1151C44.2965 62.722 44.3263 63.2146 44.386 63.5927C44.4855 64.1897 44.6895 64.712 44.998 65.1598H40.2966C40.5851 64.6424 40.7792 64.1001 40.8787 63.533C40.9284 63.2444 40.9533 62.7718 40.9533 62.1151V45.2051L36.1475 51.8915C35.3714 52.9661 34.6152 54.0457 33.8789 55.1302C33.7197 55.369 33.5953 55.6128 33.5057 55.8615C33.4261 56.2695 33.3814 56.5779 33.3714 56.7869L33.3565 62.1002Z" fill="#1D2025" fill-opacity="0.9"/>
<path d="M14.897 52.4139V62.1151C14.897 62.7718 14.9218 63.2444 14.9716 63.533C15.0711 64.1001 15.2651 64.6424 15.5537 65.1598H10.8523C11.1607 64.712 11.3647 64.1897 11.4642 63.5927C11.5239 63.2146 11.5538 62.722 11.5538 62.1151V42.3544C11.5538 41.7276 11.5239 41.245 11.4642 40.9067C11.3548 40.2898 11.1508 39.7674 10.8523 39.3396H15.5835C15.285 39.7973 15.096 40.2699 15.0164 40.7575C14.9368 41.245 14.897 41.7773 14.897 42.3544V44.041H22.6132V42.3544C22.6132 41.6579 22.5783 41.1754 22.5087 40.9067C22.4092 40.2799 22.2152 39.7575 21.9266 39.3396H26.628C26.3792 39.7575 26.1902 40.2351 26.0608 40.7724C25.9812 41.4092 25.9414 41.9365 25.9414 42.3544V62.1151C25.9414 62.7121 25.9713 63.1847 26.031 63.533C26.1404 64.1101 26.3295 64.6523 26.5981 65.1598H21.9266C22.2152 64.7518 22.4092 64.2295 22.5087 63.5927C22.5783 63.1549 22.6132 62.6623 22.6132 62.1151V52.4139V47.3991H14.897V52.4139Z" fill="#1D2025" fill-opacity="0.9"/>
<path d="M42.1437 19.5384C15.3458 17.7277 2.86414 32.3588 0 39.3827C13.4205 26.2895 33.5513 24.4483 42.1437 24.4483C56.5326 24.3119 87.9699 25.2666 100.654 24.6529C112.149 24.0967 129.245 21.3462 138.585 18.3072C124.959 22.4143 85.5098 22.4685 42.1437 19.5384Z" fill="#DC463E"/>
<path d="M79.9912 21.7887C93.9027 15.1058 127.863 3.90836 152.413 12.5826C144.366 6.58155 118.616 0.0213194 79.9912 21.7887Z" fill="#DC463E"/>
<path d="M176.758 12.7872C130.114 -8.16193 88.9928 9.92304 74.2629 21.5842C92.4707 2.7627 140.138 -8.69384 178.395 8.28639C209 21.8706 202.603 39.4509 195.58 46.5431C203.272 28.7036 186.237 16.606 176.758 12.7872Z" fill="#DC463E"/>
</svg>
